<?xml version="1.0" encoding="UTF-8"?>
<svg id="Layer_2" data-name="Layer 2" xmlns="http://www.w3.org/2000/svg" viewBox="0 0 612.49 612.49">
  <defs>
    <style>
      .cls-1 {
        fill: #caff54;
      }
    </style>
  </defs>
  <g id="Layer_1-2" data-name="Layer 1">
    <g>
      <rect x="0" width="612.49" height="612.49"/>
      <g>
        <path class="cls-1" d="M165.6,147.54h63.81v63.81h-63.81v-63.81ZM165.6,211.35h63.81v63.81h-63.81v-63.81ZM165.6,275.17h63.81v63.81h-63.81v-63.81ZM165.6,338.98h63.81v63.81h-63.81v-63.81ZM165.6,402.8h63.81v63.81h-63.81v-63.81ZM229.42,147.54h63.81v63.81h-63.81v-63.81ZM293.23,211.35h63.81v63.81h-63.81v-63.81ZM293.23,275.17h63.81v63.81h-63.81v-63.81ZM293.23,338.98h63.81v63.81h-63.81v-63.81ZM293.23,402.8h63.81v63.81h-63.81v-63.81Z"/>
        <path class="cls-1" d="M420.86,402.8h63.81v63.81h-63.81v-63.81Z"/>
      </g>
    </g>
  </g>
</svg>